<svg xmlns="http://www.w3.org/2000/svg" viewBox="0 0 279.69 425.5"><defs><style>.cls-1{fill:none;stroke:#fff;stroke-linecap:round;stroke-linejoin:round;stroke-width:10px;}</style></defs><g id="Layer_2" data-name="Layer 2"><g id="Layer_5" data-name="Layer 5"><path class="cls-1" d="M139.85,420.5S72.19,381,43.19,349C14,316.79-8.3,279.2,14.19,236c25-48,92.66-51.5,125.66,22.5h0c33-74,100.65-70.5,125.65-22.5,22.5,43.2.19,80.79-29,113-29,32-96.65,71.5-96.65,71.5Z"/><line class="cls-1" x1="139.5" y1="251" x2="139.5" y2="89"/><path class="cls-1" d="M193.5,89s-53.27,49-53.63,81S123.5,66,102.5,49"/><path class="cls-1" d="M116.5,97s-65-7-40-92C76.5,5,159.5,28,116.5,97Z"/><path class="cls-1" d="M165,119.76S140.5,57,217.5,51C217.5,51,250.47,124.51,165,119.76Z"/></g></g></svg>