<svg xmlns="http://www.w3.org/2000/svg" viewBox="0 0 499.63 456.08"><defs><style>.cls-1{fill:none;stroke:#fff;stroke-linecap:round;stroke-linejoin:round;stroke-width:10px;}</style></defs><g id="Layer_2" data-name="Layer 2"><g id="Layer_3" data-name="Layer 3"><line class="cls-1" x1="5" y1="451.08" x2="340.77" y2="451.08"/><line class="cls-1" x1="362.06" y1="451.08" x2="398.83" y2="451.08"/><line class="cls-1" x1="420.12" y1="451.08" x2="494.63" y2="451.08"/><path class="cls-1" d="M250,5C120.36,5,110.89,126.92,119.6,177.24S250,432.7,250,432.7,371.74,227.56,380.45,177.24,379.69,5,250,5Z"/><path class="cls-1" d="M144.82,131.76H109.7s-4.39-30-35.13-30h1.65c-30.74,0-35.13,30-35.13,30H6"/><path class="cls-1" d="M487.58,302.19H452.46s-4.39-30-35.13-30H419c-30.74,0-35.13,30-35.13,30"/><line class="cls-1" x1="428.83" y1="338.84" x2="463.66" y2="338.84"/><line class="cls-1" x1="34.03" y1="168.53" x2="68.86" y2="168.53"/><line class="cls-1" x1="205.77" y1="169.97" x2="205.77" y2="255.91"/><polyline class="cls-1" points="315.42 94.96 205.77 219.98 161.02 168.96"/><polyline class="cls-1" points="184.41 94.96 294.06 219.98 338.81 168.96"/><path class="cls-1" d="M333.16,268c-19.52-9.46-49.64-15.6-83.43-15.6V95.73h0V170l0,82.39c-33.8,0-63.92,6.14-83.44,15.6"/><line class="cls-1" x1="293.95" y1="170.21" x2="293.95" y2="256.14"/></g></g></svg>