<svg xmlns="http://www.w3.org/2000/svg" viewBox="0 0 126.92 126.92">
  <g data-name="Layer 2">
    <path d="M35.83 63.46l.05-.09-22.47-38.92a63.55 63.55 0 00-10.1 59.29h44.23z" fill="#ffd485"/>
    <path d="M49.64 39.53h.09L72.13.59A65.18 65.18 0 0063.46 0a63.31 63.31 0 00-47.57 21.46L38 59.73z" fill="#d81159"/>
    <path d="M68.66 39.53h53.58A63.56 63.56 0 0076.08 1.26L53.86 39.53z" fill="#8f2d56"/>
    <path d="M60.86 87.38H4.67A63.54 63.54 0 0051 125.69l22-38.31z" fill="#ffbc42"/>
    <path d="M91.09 63.46v.07l22.48 38.92a63.5 63.5 0 0010.03-59.28H79.37z" fill="#218380"/>
    <path d="M77.27 87.38l-22.5 38.94a64.09 64.09 0 008.7.6A63.3 63.3 0 00111 105.44L88.94 67.17z" fill="#73d2de"/>
  </g>
</svg>
